<?xml version="1.0" encoding="UTF-8"?>
<svg xmlns="http://www.w3.org/2000/svg" width="32" height="32" viewBox="0 0 32 32" shape-rendering="crispEdges">
  <title>Converted ICO icon</title>
  <path fill="#ffffff" fill-opacity="0.003922" d="M7 26h1v1H7z"/>
  <path fill="#fefafa" fill-opacity="0.01176" d="M27 25h1v1H27z"/>
  <path fill="#fbecef" fill-opacity="0.01569" d="M12 2h1v1H12z"/>
  <path fill="#f4d1d4" fill-opacity="0.01961" d="M2 17h1v1H2z"/>
  <path fill="#fae8ea" fill-opacity="0.02353" d="M2 14h1v1H2z"/>
  <path fill="#fef6f8" fill-opacity="0.02353" d="M18 30h1v1H18z"/>
  <path fill="#ffffff" fill-opacity="0.03137" d="M2 15h1v1H2zM2 16h1v1H2z"/>
  <path fill="#eeb7bc" fill-opacity="0.03529" d="M2 13h1v1H2z"/>
  <path fill="#eeb7bd" fill-opacity="0.04706" d="M2 18h1v1H2z"/>
  <path fill="#f7d8dc" fill-opacity="0.07451" d="M21 3h1v1H21z"/>
  <path fill="#f9e3e6" fill-opacity="0.0902" d="M9 4h1v1H9z"/>
  <path fill="#eeb7bc" fill-opacity="0.09412" d="M2 12h1v1H2z"/>
  <path fill="#f9e3e5" fill-opacity="0.1059" d="M7 5h1v1H7z"/>
  <path fill="#ecafb4" fill-opacity="0.1098" d="M2 19h1v1H2z"/>
  <path fill="#fbeaed" fill-opacity="0.1216" d="M18 1h1v1H18z"/>
  <path fill="#fdf6f7" fill-opacity="0.1373" d="M27 6h1v1H27z"/>
  <path fill="#e9a3aa" fill-opacity="0.1412" d="M29 14h1v1H29z"/>
  <path fill="#eaa9b0" fill-opacity="0.1529" d="M29 17h1v1H29z"/>
  <path fill="#f6d6d8" fill-opacity="0.1529" d="M5 25h1v1H5z"/>
  <path fill="#edb6bc" fill-opacity="0.1569" d="M2 24h1v1H2z"/>
  <path fill="#f2c9cd" fill-opacity="0.1569" d="M29 16h1v1H29z"/>
  <path fill="#e699a1" fill-opacity="0.1608" d="M2 11h1v1H2z"/>
  <path fill="#f5d3d6" fill-opacity="0.1608" d="M24 26h1v1H24z"/>
  <path fill="#f5d5d8" fill-opacity="0.1608" d="M29 15h1v1H29z"/>
  <path fill="#e69aa2" fill-opacity="0.2" d="M2 20h1v1H2z"/>
  <path fill="#ebacb3" fill-opacity="0.2" d="M29 13h1v1H29z"/>
  <path fill="#f4d0d4" fill-opacity="0.2" d="M22 27h1v1H22z"/>
  <path fill="#f9e6e9" fill-opacity="0.2039" d="M19 29h1v1H19z"/>
  <path fill="#fae9eb" fill-opacity="0.2118" d="M11 28h1v1H11z"/>
  <path fill="#edb3ba" fill-opacity="0.2275" d="M29 18h1v1H29z"/>
  <path fill="#e697a0" fill-opacity="0.2627" d="M2 7h1v1H2z"/>
  <path fill="#f0c0c4" fill-opacity="0.2667" d="M5 6h1v1H5z"/>
  <path fill="#e48e97" fill-opacity="0.2706" d="M29 24h1v1H29z"/>
  <path fill="#e2888f" fill-opacity="0.2863" d="M26 25h1v1H26z"/>
  <path fill="#f1c1c9" fill-opacity="0.2902" d="M15 31h1v1H15z"/>
  <path fill="#f1c8cb" fill-opacity="0.2902" d="M24 5h1v1H24z"/>
  <path fill="#ecb1b7" fill-opacity="0.2941" d="M29 12h1v1H29z"/>
  <path fill="#e79da5" fill-opacity="0.302" d="M29 19h1v1H29z"/>
  <path fill="#f1c3c7" fill-opacity="0.3137" d="M19 2h1v1H19z"/>
  <path fill="#f2c9ce" fill-opacity="0.3216" d="M11 3h1v1H11z"/>
  <path fill="#f0bdc4" fill-opacity="0.3255" d="M14 30h1v1H14z"/>
  <path fill="#f0c3c7" fill-opacity="0.3333" d="M22 4h1v1H22z"/>
  <path fill="#e5979d" fill-opacity="0.3569" d="M8 26h1v1H8z"/>
  <path fill="#e5959e" fill-opacity="0.3725" d="M29 11h1v1H29z"/>
  <path fill="#efbcc2" fill-opacity="0.3804" d="M2 10h1v1H2z"/>
  <path fill="#e38c96" fill-opacity="0.3882" d="M29 20h1v1H29z"/>
  <path fill="#e28491" fill-opacity="0.3961" d="M3 24h1v1H3z"/>
  <path fill="#df7f89" fill-opacity="0.4039" d="M29 7h1v1H29z"/>
  <path fill="#edb6bd" fill-opacity="0.4235" d="M2 21h1v1H2z"/>
  <path fill="#e89fa7" fill-opacity="0.4392" d="M14 1h1v1H14z"/>
  <path fill="#e28b91" fill-opacity="0.4431" d="M26 6h1v1H26z"/>
  <path fill="#e28c93" fill-opacity="0.4471" d="M10 27h1v1H10z"/>
  <path fill="#edb2ba" fill-opacity="0.451" d="M15 0h1v1H15z"/>
  <path fill="#e8a1a8" fill-opacity="0.4706" d="M20 28h1v1H20z"/>
  <path fill="#e1878e" fill-opacity="0.4863" d="M6 25h1v1H6z"/>
  <path fill="#e4929a" fill-opacity="0.4941" d="M8 5h1v1H8z"/>
  <path fill="#e79ba4" fill-opacity="0.502" d="M13 29h1v1H13z"/>
  <path fill="#dd7681" fill-opacity="0.5059" d="M29 10h1v1H29z"/>
  <path fill="#de6f7e" fill-opacity="0.5294" d="M3 7h1v1H3z"/>
  <path fill="#da6e76" fill-opacity="0.5529" d="M16 31h1v1H16z"/>
  <path fill="#dd7881" fill-opacity="0.5765" d="M10 4h1v1H10z"/>
  <path fill="#de7985" fill-opacity="0.5765" d="M29 21h1v1H29z"/>
  <path fill="#db6c79" fill-opacity="0.5843" d="M28 24h1v1H28z"/>
  <path fill="#d55762" fill-opacity="0.5961" d="M6 6h1v1H6z"/>
  <path fill="#e1868f" fill-opacity="0.6078" d="M20 3h1v1H20z"/>
  <path fill="#db6e77" fill-opacity="0.6235" d="M23 26h1v1H23z"/>
  <path fill="#de7b85" fill-opacity="0.6392" d="M13 2h1v1H13z"/>
  <path fill="#e79fa7" fill-opacity="0.651" d="M2 9h1v1H2z"/>
  <path fill="#d44d5e" fill-opacity="0.6902" d="M28 7h1v1H28z"/>
  <path fill="#da6e78" fill-opacity="0.698" d="M17 30h1v1H17z"/>
  <path fill="#d14854" fill-opacity="0.7176" d="M23 5h1v1H23z"/>
  <path fill="#e0818c" fill-opacity="0.7216" d="M2 22h1v1H2z"/>
  <path fill="#da6c76" fill-opacity="0.7373" d="M25 25h1v1H25z"/>
  <path fill="#d86e73" fill-opacity="0.7412" d="M16 0h1v1H16z"/>
  <path fill="#d3515b" fill-opacity="0.749" d="M12 28h1v1H12z"/>
  <path fill="#d8616d" fill-opacity="0.7608" d="M4 24h1v1H4z"/>
  <path fill="#da6875" fill-opacity="0.7882" d="M29 9h1v1H29z"/>
  <path fill="#d14853" fill-opacity="0.8039" d="M21 27h1v1H21z"/>
  <path fill="#d14a56" fill-opacity="0.8039" d="M17 1h1v1H17z"/>
  <path fill="#d14753" fill-opacity="0.8235" d="M25 6h1v1H25z"/>
  <path fill="#cc3743" fill-opacity="0.8392" d="M18 29h1v1H18z"/>
  <path fill="#d04553" fill-opacity="0.851" d="M9 26h1v1H9z"/>
  <path fill="#cc3644" fill-opacity="0.8588" d="M12 3h1v1H12z"/>
  <path fill="#cc3644" fill-opacity="0.8667" d="M4 7h1v1H4z"/>
  <path fill="#d75d6b" fill-opacity="0.8667" d="M29 22h1v1H29z"/>
  <path fill="#d34d5b" fill-opacity="0.8784" d="M7 25h1v1H7z"/>
  <path fill="#c92835" fill-opacity="0.898" d="M21 4h1v1H21z"/>
  <path fill="#d24759" fill-opacity="0.898" d="M27 24h1v1H27z"/>
  <path fill="#ce384a" fill-opacity="0.902" d="M3 17h1v1H3z"/>
  <path fill="#ce394a" fill-opacity="0.902" d="M2 23h1v1H2z"/>
  <path fill="#cf3d4f" fill-opacity="0.9059" d="M3 14h1v1H3z"/>
  <path fill="#d14454" fill-opacity="0.9137" d="M3 15h1v1H3zM3 16h1v1H3z"/>
  <path fill="#cb2a3e" fill-opacity="0.9176" d="M3 13h1v1H3z"/>
  <path fill="#ca283b" fill-opacity="0.9333" d="M3 18h1v1H3z"/>
  <path fill="#cf3b4c" fill-opacity="0.9412" d="M2 8h1v1H2z"/>
  <path fill="#c7212f" fill-opacity="0.949" d="M18 2h1v1H18z"/>
  <path fill="#c92839" fill-opacity="0.9569" d="M9 5h1v1H9z"/>
  <path fill="#ca283b" fill-opacity="0.9765" d="M7 6h1v1H7z"/>
  <path fill="#c92238" fill-opacity="0.9961" d="M3 12h1v1H3z"/>
  <path fill="#ac0000" d="M3 9h1v1H3z"/>
  <path fill="#ae0000" d="M25 24h1v1H25z"/>
  <path fill="#b00000" d="M13 4h1v1H13z"/>
  <path fill="#b10000" d="M16 1h1v1H16zM9 6h1v1H9zM7 7h1v1H7zM13 27h1v1H13z"/>
  <path fill="#b20000" d="M25 7h1v1H25z"/>
  <path fill="#b30000" d="M3 8h1v1H3zM15 29h1v1H15z"/>
  <path fill="#b40000" d="M11 5h1v1H11zM3 10h1v1H3zM28 21h1v1H28z"/>
  <path fill="#b50000" d="M15 2h1v1H15zM9 25h1v1H9zM16 30h1v1H16z"/>
  <path fill="#b60000" d="M13 3h1v1H13zM10 5h1v1H10zM28 8h1v1H28zM8 21h1v1H8zM28 22h1v1H28zM8 24h1v1H8zM11 26h1v1H11z"/>
  <path fill="#b70000" d="M12 4h1v1H12zM24 7h1v1H24zM22 21h1v1H22zM3 22h1v1H3zM27 23h2v1H27zM24 24h1v1H24zM13 28h1v1H13z"/>
  <path fill="#b80000" d="M18 4h1v1H18zM20 4h1v1H20zM8 6h1v1H8zM6 7h1v1H6zM23 7h1v1H23zM28 9h1v1H28zM5 23h1v1H5zM7 24h1v1H7zM10 25h1v1H10zM12 27h1v1H12z"/>
  <path fill="#b90000" d="M14 2h1v1H14zM9 9h1v1H9zM23 25h1v1H23zM12 26h1v1H12zM19 26h1v1H19z"/>
  <path fill="#b90001" d="M17 2h1v1H17zM6 24h1v1H6z"/>
  <path fill="#ba0000" d="M19 5h1v1H19zM4 23h1v1H4zM21 25h1v1H21z"/>
  <path fill="#ba0001" d="M22 6h1v1H22zM20 27h1v1H20zM17 29h1v1H17z"/>
  <path fill="#ba0002" d="M5 12h1v1H5zM3 23h1v1H3z"/>
  <path fill="#ba0003" d="M4 21h1v1H4zM6 23h1v1H6zM21 26h1v1H21zM18 28h1v1H18z"/>
  <path fill="#bb0000" d="M21 6h1v1H21zM6 19h1v1H6z"/>
  <path fill="#bb0001" d="M23 24h1v1H23z"/>
  <path fill="#bb0004" d="M4 8h1v1H4zM14 29h1v1H14z"/>
  <path fill="#bb0006" d="M23 6h1v1H23zM4 15h1v1H4zM4 16h1v1H4zM3 21h1v1H3z"/>
  <path fill="#bb0007" d="M10 26h1v1H10z"/>
  <path fill="#bc0000" d="M7 12h1v1H7z"/>
  <path fill="#bc0007" d="M5 7h1v1H5z"/>
  <path fill="#bc0008" d="M20 5h1v1H20z"/>
  <path fill="#bc0009" d="M18 3h1v1H18zM21 5h1v1H21z"/>
  <path fill="#bc000a" d="M27 9h1v1H27zM28 10h1v1H28zM4 14h1v1H4zM26 24h1v1H26zM17 27h2v1H17z"/>
  <path fill="#bc010a" d="M27 20h1v1H27z"/>
  <path fill="#bd0002" d="M6 12h1v1H6z"/>
  <path fill="#bd000b" d="M28 20h1v1H28z"/>
  <path fill="#bd000c" d="M19 3h1v1H19zM26 7h1v1H26zM4 17h1v1H4zM5 19h1v1H5zM22 25h1v1H22zM16 29h1v1H16z"/>
  <path fill="#bd000d" d="M14 3h1v1H14z"/>
  <path fill="#bd000e" d="M27 8h1v1H27zM4 12h1v1H4zM14 28h1v1H14z"/>
  <path fill="#bd000f" d="M8 25h1v1H8z"/>
  <path fill="#bd0010" d="M19 27h1v1H19z"/>
  <path fill="#bd020f" d="M4 20h1v1H4z"/>
  <path fill="#be0000" d="M11 8h1v1H11z"/>
  <path fill="#be000f" d="M16 2h1v1H16zM7 23h1v1H7z"/>
  <path fill="#be0011" d="M15 1h1v1H15zM17 3h1v1H17zM28 11h1v1H28zM17 28h1v1H17z"/>
  <path fill="#be0012" d="M22 5h1v1H22zM4 13h1v1H4zM4 18h1v1H4z"/>
  <path fill="#be0111" d="M4 11h1v1H4z"/>
  <path fill="#be0310" d="M4 22h1v1H4z"/>
  <path fill="#be0314" d="M27 19h1v1H27z"/>
  <path fill="#bf0000" d="M9 10h1v1H9zM25 18h1v1H25z"/>
  <path fill="#bf0013" d="M11 4h1v1H11zM27 15h1v1H27zM26 19h1v1H26z"/>
  <path fill="#bf0014" d="M27 16h1v1H27z"/>
  <path fill="#bf0314" d="M27 10h1v1H27z"/>
  <path fill="#bf0612" d="M27 22h1v1H27z"/>
  <path fill="#c00000" d="M13 7h1v1H13z"/>
  <path fill="#c0000d" d="M22 24h1v1H22z"/>
  <path fill="#c00016" d="M20 26h1v1H20z"/>
  <path fill="#c00118" d="M19 4h1v1H19zM27 14h1v1H27zM27 17h1v1H27z"/>
  <path fill="#c00216" d="M26 8h1v1H26z"/>
  <path fill="#c00219" d="M27 13h1v1H27z"/>
  <path fill="#c0021b" d="M4 19h1v1H4z"/>
  <path fill="#c00717" d="M8 7h1v1H8z"/>
  <path fill="#c10000" d="M10 22h1v1H10zM14 24h1v1H14z"/>
  <path fill="#c1031d" d="M27 18h1v1H27z"/>
  <path fill="#c1041b" d="M26 23h1v1H26z"/>
  <path fill="#c1041c" d="M28 19h1v1H28z"/>
  <path fill="#c10518" d="M26 11h1v1H26z"/>
  <path fill="#c1051c" d="M27 12h1v1H27z"/>
  <path fill="#c1061d" d="M28 12h1v1H28z"/>
  <path fill="#c1081c" d="M24 6h1v1H24z"/>
  <path fill="#c10919" d="M17 4h1v1H17z"/>
  <path fill="#c10e14" d="M18 26h1v1H18z"/>
  <path fill="#c20000" d="M17 24h1v1H17z"/>
  <path fill="#c20517" d="M25 11h1v1H25z"/>
  <path fill="#c30000" d="M17 7h1v1H17zM21 9h1v1H21zM12 23h1v1H12z"/>
  <path fill="#c30a1d" d="M26 18h1v1H26z"/>
  <path fill="#c30a1e" d="M3 11h1v1H3z"/>
  <path fill="#c30b18" d="M20 25h1v1H20z"/>
  <path fill="#c30b22" d="M3 20h1v1H3z"/>
  <path fill="#c30b24" d="M27 11h1v1H27z"/>
  <path fill="#c30d25" d="M28 18h1v1H28z"/>
  <path fill="#c31323" d="M19 28h1v1H19z"/>
  <path fill="#c31325" d="M22 26h1v1H22z"/>
  <path fill="#c31423" d="M15 30h1v1H15z"/>
  <path fill="#c40000" d="M15 7h1v1H15zM19 23h1v1H19zM15 24h2v1H15z"/>
  <path fill="#c40e22" d="M5 13h1v1H5z"/>
  <path fill="#c40f23" d="M5 18h1v1H5z"/>
  <path fill="#c41023" d="M5 14h1v1H5zM5 15h1v1H5zM5 16h1v1H5zM5 17h1v1H5z"/>
  <path fill="#c41025" d="M26 12h1v1H26z"/>
  <path fill="#c41027" d="M28 13h1v1H28z"/>
  <path fill="#c50000" d="M14 7h1v1H14zM16 7h1v1H16zM19 8h1v1H19zM21 22h1v1H21z"/>
  <path fill="#c50a14" d="M7 19h1v1H7z"/>
  <path fill="#c50b1a" d="M25 12h1v1H25z"/>
  <path fill="#c51022" d="M26 13h1v1H26z"/>
  <path fill="#c51122" d="M26 17h1v1H26z"/>
  <path fill="#c5152b" d="M28 17h1v1H28z"/>
  <path fill="#c51827" d="M12 5h1v1H12z"/>
  <path fill="#c5192a" d="M11 27h1v1H11z"/>
  <path fill="#c60100" d="M22 10h1v1H22z"/>
  <path fill="#c60606" d="M9 21h1v1H9z"/>
  <path fill="#c60c14" d="M23 10h1v1H23z"/>
  <path fill="#c60e19" d="M24 11h1v1H24z"/>
  <path fill="#c61122" d="M26 14h1v1H26z"/>
  <path fill="#c61221" d="M6 13h1v1H6z"/>
  <path fill="#c61222" d="M26 15h1v1H26zM26 16h1v1H26z"/>
  <path fill="#c61422" d="M6 18h1v1H6z"/>
  <path fill="#c6182d" d="M28 14h1v1H28z"/>
  <path fill="#c61b2d" d="M24 25h1v1H24z"/>
  <path fill="#c61c2c" d="M10 6h1v1H10z"/>
  <path fill="#c7080a" d="M24 18h1v1H24z"/>
  <path fill="#c70a0a" d="M10 9h1v1H10z"/>
  <path fill="#c70d10" d="M13 24h1v1H13z"/>
  <path fill="#c70e10" d="M18 7h1v1H18z"/>
  <path fill="#c70f11" d="M8 20h1v1H8z"/>
  <path fill="#c71215" d="M22 9h1v1H22z"/>
  <path fill="#c71521" d="M6 15h1v1H6zM6 16h1v1H6zM6 17h1v1H6z"/>
  <path fill="#c71522" d="M6 14h1v1H6z"/>
  <path fill="#c71621" d="M25 13h1v1H25z"/>
  <path fill="#c71c32" d="M28 16h1v1H28z"/>
  <path fill="#c71d2e" d="M26 10h1v1H26z"/>
  <path fill="#c71d32" d="M28 15h1v1H28z"/>
  <path fill="#c72032" d="M5 24h1v1H5z"/>
  <path fill="#c81012" d="M20 8h1v1H20z"/>
  <path fill="#c81117" d="M24 12h1v1H24z"/>
  <path fill="#c81721" d="M25 14h1v1H25z"/>
  <path fill="#c81821" d="M25 17h1v1H25z"/>
  <path fill="#c81a34" d="M27 21h1v1H27z"/>
  <path fill="#c81d33" d="M3 19h1v1H3z"/>
  <path fill="#c8222e" d="M9 24h1v1H9z"/>
  <path fill="#c82236" d="M29 23h1v1H29z"/>
  <path fill="#c90e0c" d="M12 8h1v1H12z"/>
  <path fill="#c91619" d="M11 23h1v1H11z"/>
  <path fill="#c91821" d="M25 15h1v1H25zM25 16h1v1H25z"/>
  <path fill="#c92438" d="M29 8h1v1H29z"/>
  <path fill="#c9263a" d="M27 7h1v1H27z"/>
  <path fill="#ca1313" d="M23 11h1v1H23z"/>
  <path fill="#ca1b20" d="M7 18h1v1H7z"/>
  <path fill="#ca202c" d="M7 20h1v1H7z"/>
  <path fill="#ca283b" d="M16 28h1v1H16z"/>
  <path fill="#cb1411" d="M8 12h1v1H8z"/>
  <path fill="#cb1d20" d="M7 17h1v1H7z"/>
  <path fill="#cb1e24" d="M7 13h1v1H7z"/>
  <path fill="#cb2e3e" d="M26 9h1v1H26z"/>
  <path fill="#cb2e41" d="M16 3h1v1H16z"/>
  <path fill="#cc0c00" d="M20 22h1v1H20z"/>
  <path fill="#cc1d20" d="M7 14h1v1H7z"/>
  <path fill="#cc1e20" d="M24 13h1v1H24zM7 15h1v1H7zM7 16h1v1H7z"/>
  <path fill="#cd1306" d="M18 23h1v1H18z"/>
  <path fill="#ce1a11" d="M11 22h1v1H11z"/>
  <path fill="#ce1a12" d="M8 13h1v1H8z"/>
  <path fill="#ce211f" d="M24 14h1v1H24zM24 17h1v1H24z"/>
  <path fill="#ce221e" d="M24 15h1v1H24zM24 16h1v1H24z"/>
  <path fill="#ce3c45" d="M22 7h1v1H22z"/>
  <path fill="#ce3d47" d="M11 25h1v1H11z"/>
  <path fill="#ce4549" d="M18 5h1v1H18z"/>
  <path fill="#cf373d" d="M10 8h1v1H10z"/>
  <path fill="#d01707" d="M23 18h1v1H23z"/>
  <path fill="#d01c0d" d="M10 10h1v1H10z"/>
  <path fill="#d02017" d="M13 23h1v1H13z"/>
  <path fill="#d02624" d="M8 19h1v1H8z"/>
  <path fill="#d03438" d="M24 19h1v1H24z"/>
  <path fill="#d0373c" d="M12 7h1v1H12z"/>
  <path fill="#d0383d" d="M9 22h1v1H9z"/>
  <path fill="#d03e4e" d="M24 23h1v1H24z"/>
  <path fill="#d04051" d="M5 20h1v1H5z"/>
  <path fill="#d04152" d="M25 8h1v1H25z"/>
  <path fill="#d0454c" d="M23 23h1v1H23z"/>
  <path fill="#d0464f" d="M20 6h1v1H20z"/>
  <path fill="#d04a53" d="M24 8h1v1H24z"/>
  <path fill="#d12215" d="M20 9h1v1H20z"/>
  <path fill="#d12317" d="M18 8h1v1H18z"/>
  <path fill="#d1271e" d="M8 18h1v1H8z"/>
  <path fill="#d1271f" d="M23 12h1v1H23z"/>
  <path fill="#d12a24" d="M23 19h1v1H23z"/>
  <path fill="#d20d00" d="M9 13h1v1H9z"/>
  <path fill="#d2291f" d="M9 20h1v1H9z"/>
  <path fill="#d22a1c" d="M8 17h1v1H8z"/>
  <path fill="#d22a20" d="M13 8h1v1H13z"/>
  <path fill="#d22b22" d="M11 9h1v1H11z"/>
  <path fill="#d24856" d="M13 26h1v1H13z"/>
  <path fill="#d32b1e" d="M8 14h1v1H8z"/>
  <path fill="#d32c1c" d="M8 15h1v1H8zM8 16h1v1H8z"/>
  <path fill="#d33d3f" d="M18 24h1v1H18z"/>
  <path fill="#d34b51" d="M14 6h1v1H14z"/>
  <path fill="#d42713" d="M21 21h1v1H21z"/>
  <path fill="#d42c1d" d="M23 13h1v1H23z"/>
  <path fill="#d42d1d" d="M14 8h1v1H14z"/>
  <path fill="#d42d20" d="M10 21h1v1H10z"/>
  <path fill="#d42f1f" d="M14 23h1v1H14z"/>
  <path fill="#d45061" d="M15 3h1v1H15z"/>
  <path fill="#d52e1a" d="M15 8h1v1H15zM15 23h1v1H15z"/>
  <path fill="#d52e1b" d="M16 8h1v1H16z"/>
  <path fill="#d52f1c" d="M9 19h1v1H9z"/>
  <path fill="#d5301f" d="M17 8h1v1H17zM17 23h1v1H17z"/>
  <path fill="#d53121" d="M22 11h1v1H22z"/>
  <path fill="#d55364" d="M15 28h1v1H15z"/>
  <path fill="#d6301c" d="M12 9h1v1H12zM16 23h1v1H16z"/>
  <path fill="#d6311c" d="M23 14h1v1H23z"/>
  <path fill="#d6311f" d="M21 10h1v1H21z"/>
  <path fill="#d6331f" d="M12 22h1v1H12z"/>
  <path fill="#d65761" d="M25 19h1v1H25z"/>
  <path fill="#d7331b" d="M23 16h1v1H23z"/>
  <path fill="#d7331e" d="M23 17h1v1H23z"/>
  <path fill="#d7341b" d="M23 15h1v1H23z"/>
  <path fill="#d74e50" d="M20 23h1v1H20z"/>
  <path fill="#d82000" d="M21 20h1v1H21z"/>
  <path fill="#d83218" d="M10 11h1v1H10z"/>
  <path fill="#d8351d" d="M19 22h1v1H19z"/>
  <path fill="#d8361e" d="M19 9h1v1H19z"/>
  <path fill="#d85962" d="M8 9h1v1H8z"/>
  <path fill="#d85b5d" d="M22 22h1v1H22z"/>
  <path fill="#d86170" d="M25 23h1v1H25z"/>
  <path fill="#d91f00" d="M22 18h1v1H22z"/>
  <path fill="#d9361a" d="M22 12h1v1H22zM10 20h1v1H10z"/>
  <path fill="#d9371b" d="M11 21h1v1H11z"/>
  <path fill="#da381a" d="M9 18h1v1H9z"/>
  <path fill="#da3a1d" d="M11 10h1v1H11z"/>
  <path fill="#da626a" d="M8 10h1v1H8z"/>
  <path fill="#da696c" d="M7 11h1v1H7z"/>
  <path fill="#db3919" d="M13 9h1v1H13z"/>
  <path fill="#db391a" d="M13 22h1v1H13z"/>
  <path fill="#db676a" d="M17 6h1v1H17z"/>
  <path fill="#dc3b1a" d="M20 10h1v1H20z"/>
  <path fill="#dc6c72" d="M16 25h1v1H16z"/>
  <path fill="#dc6d72" d="M14 25h1v1H14z"/>
  <path fill="#dc707c" d="M4 10h1v1H4z"/>
  <path fill="#dd3c19" d="M21 11h1v1H21z"/>
  <path fill="#dd3d19" d="M18 9h1v1H18z"/>
  <path fill="#dd3e1a" d="M18 22h1v1H18z"/>
  <path fill="#dd401d" d="M20 21h1v1H20z"/>
  <path fill="#dd7581" d="M5 22h1v1H5z"/>
  <path fill="#de2200" d="M11 11h1v1H11z"/>
  <path fill="#de757b" d="M16 6h1v1H16z"/>
  <path fill="#de7983" d="M6 20h1v1H6z"/>
  <path fill="#de7a86" d="M14 4h1v1H14z"/>
  <path fill="#df3f18" d="M9 17h1v1H9z"/>
  <path fill="#df4018" d="M22 13h1v1H22z"/>
  <path fill="#df411a" d="M9 14h1v1H9z"/>
  <path fill="#df6600" d="M19 16h1v1H19z"/>
  <path fill="#df8388" d="M8 23h1v1H8z"/>
  <path fill="#df868a" d="M7 8h1v1H7z"/>
  <path fill="#e04218" d="M14 9h1v1H14zM14 22h1v1H14z"/>
  <path fill="#e14317" d="M17 9h1v1H17zM9 15h1v1H9zM9 16h1v1H9zM10 19h1v1H10z"/>
  <path fill="#e14417" d="M12 10h1v1H12zM12 21h1v1H12zM17 22h1v1H17z"/>
  <path fill="#e16800" d="M19 14h1v1H19z"/>
  <path fill="#e16900" d="M17 19h1v1H17z"/>
  <path fill="#e1858f" d="M5 11h1v1H5z"/>
  <path fill="#e18a8f" d="M19 25h1v1H19z"/>
  <path fill="#e24616" d="M15 22h1v1H15z"/>
  <path fill="#e24b00" d="M13 12h1v1H13z"/>
  <path fill="#e26c00" d="M17 12h1v1H17z"/>
  <path fill="#e28184" d="M19 7h1v1H19z"/>
  <path fill="#e28a8f" d="M21 24h1v1H21z"/>
  <path fill="#e28d93" d="M13 5h1v1H13z"/>
  <path fill="#e28e91" d="M23 8h1v1H23z"/>
  <path fill="#e33300" d="M20 20h1v1H20z"/>
  <path fill="#e34616" d="M15 9h1v1H15z"/>
  <path fill="#e34716" d="M16 9h1v1H16zM16 22h1v1H16z"/>
  <path fill="#e34900" d="M11 15h1v1H11z"/>
  <path fill="#e34d00" d="M11 16h1v1H11z"/>
  <path fill="#e36000" d="M18 19h1v1H18z"/>
  <path fill="#e36d00" d="M14 19h1v1H14z"/>
  <path fill="#e37b07" d="M18 13h1v1H18z"/>
  <path fill="#e37d01" d="M19 15h1v1H19z"/>
  <path fill="#e38a96" d="M4 9h1v1H4z"/>
  <path fill="#e44000" d="M11 14h1v1H11z"/>
  <path fill="#e44400" d="M19 19h1v1H19z"/>
  <path fill="#e44613" d="M22 17h1v1H22z"/>
  <path fill="#e44816" d="M22 14h1v1H22zM11 20h1v1H11z"/>
  <path fill="#e44916" d="M19 10h1v1H19zM19 21h1v1H19z"/>
  <path fill="#e45700" d="M12 18h1v1H12z"/>
  <path fill="#e45800" d="M15 11h1v1H15z"/>
  <path fill="#e45900" d="M13 19h1v1H13z"/>
  <path fill="#e46401" d="M18 12h1v1H18z"/>
  <path fill="#e47c1f" d="M18 18h1v1H18z"/>
  <path fill="#e4898b" d="M12 24h1v1H12z"/>
  <path fill="#e48d98" d="M14 27h1v1H14z"/>
  <path fill="#e4959b" d="M11 6h1v1H11z"/>
  <path fill="#e54c15" d="M21 12h1v1H21z"/>
  <path fill="#e54c16" d="M22 15h1v1H22z"/>
  <path fill="#e55b00" d="M16 11h1v1H16z"/>
  <path fill="#e55f00" d="M15 20h1v1H15z"/>
  <path fill="#e56000" d="M20 16h1v1H20z"/>
  <path fill="#e56708" d="M19 13h1v1H19z"/>
  <path fill="#e5810f" d="M16 19h1v1H16z"/>
  <path fill="#e59296" d="M17 25h1v1H17z"/>
  <path fill="#e59aa0" d="M9 7h1v1H9z"/>
  <path fill="#e63b00" d="M21 17h1v1H21z"/>
  <path fill="#e63e00" d="M10 14h1v1H10z"/>
  <path fill="#e64800" d="M12 12h1v1H12z"/>
  <path fill="#e64c16" d="M22 16h1v1H22z"/>
  <path fill="#e65d08" d="M20 17h1v1H20z"/>
  <path fill="#e66202" d="M16 20h1v1H16z"/>
  <path fill="#e66607" d="M20 15h1v1H20z"/>
  <path fill="#e67517" d="M12 17h1v1H12z"/>
  <path fill="#e6861c" d="M15 19h1v1H15z"/>
  <path fill="#e74f15" d="M20 11h1v1H20z"/>
  <path fill="#e75b00" d="M14 11h1v1H14z"/>
  <path fill="#e7630c" d="M17 11h1v1H17z"/>
  <path fill="#e77d18" d="M14 12h1v1H14z"/>
  <path fill="#e79799" d="M21 8h1v1H21z"/>
  <path fill="#e79ea6" d="M26 20h1v1H26z"/>
  <path fill="#e84f15" d="M10 18h1v1H10z"/>
  <path fill="#e85014" d="M13 10h1v1H13z"/>
  <path fill="#e85114" d="M13 21h1v1H13z"/>
  <path fill="#e85805" d="M11 17h1v1H11z"/>
  <path fill="#e8600b" d="M14 20h1v1H14z"/>
  <path fill="#e86510" d="M17 20h1v1H17z"/>
  <path fill="#e86610" d="M20 14h1v1H20z"/>
  <path fill="#e88c30" d="M13 18h1v1H13z"/>
  <path fill="#e89ea3" d="M13 6h1v1H13z"/>
  <path fill="#e95414" d="M18 10h1v1H18zM18 21h1v1H18z"/>
  <path fill="#e96414" d="M19 12h1v1H19z"/>
  <path fill="#e99437" d="M16 12h1v1H16z"/>
  <path fill="#e99896" d="M22 20h1v1H22z"/>
  <path fill="#e9a2a6" d="M15 25h1v1H15z"/>
  <path fill="#e9a3a6" d="M11 7h1v1H11z"/>
  <path fill="#e9a4a9" d="M15 6h1v1H15z"/>
  <path fill="#e9a4ac" d="M5 8h1v1H5z"/>
  <path fill="#ea5513" d="M10 17h1v1H10z"/>
  <path fill="#ea5613" d="M21 13h1v1H21z"/>
  <path fill="#ea5614" d="M11 19h1v1H11z"/>
  <path fill="#ea5713" d="M14 10h1v1H14zM14 21h1v1H14z"/>
  <path fill="#ea5813" d="M10 16h1v1H10z"/>
  <path fill="#ea5915" d="M10 15h1v1H10z"/>
  <path fill="#ea5a12" d="M15 10h1v1H15z"/>
  <path fill="#ea5a13" d="M16 10h1v1H16z"/>
  <path fill="#ea5b12" d="M21 14h1v1H21z"/>
  <path fill="#ea5d12" d="M21 15h1v1H21z"/>
  <path fill="#ea5f14" d="M21 16h1v1H21z"/>
  <path fill="#ea6012" d="M20 13h1v1H20z"/>
  <path fill="#ea6112" d="M18 20h1v1H18z"/>
  <path fill="#ea6113" d="M18 11h1v1H18z"/>
  <path fill="#eb5510" d="M12 11h1v1H12z"/>
  <path fill="#eb5713" d="M12 20h1v1H12z"/>
  <path fill="#eb5813" d="M17 10h1v1H17zM17 21h1v1H17z"/>
  <path fill="#eb5a12" d="M20 12h1v1H20zM15 21h2v1H15z"/>
  <path fill="#eb5f12" d="M13 20h1v1H13z"/>
  <path fill="#eb5f14" d="M11 18h1v1H11z"/>
  <path fill="#eb6014" d="M12 19h1v1H12z"/>
  <path fill="#eb6113" d="M13 11h1v1H13z"/>
  <path fill="#eb9b47" d="M15 12h1v1H15z"/>
  <path fill="#ebabb2" d="M6 11h1v1H6z"/>
  <path fill="#ebabb5" d="M17 26h1v1H17z"/>
  <path fill="#ebb2b6" d="M6 22h1v1H6z"/>
  <path fill="#ec5a12" d="M19 11h1v1H19z"/>
  <path fill="#ec5c13" d="M19 20h1v1H19z"/>
  <path fill="#ec7549" d="M10 13h1v1H10z"/>
  <path fill="#ecacae" d="M10 23h1v1H10z"/>
  <path fill="#ecacaf" d="M23 21h1v1H23z"/>
  <path fill="#ecb6b9" d="M19 6h1v1H19z"/>
  <path fill="#edb6ba" d="M10 24h1v1H10z"/>
  <path fill="#edb7bb" d="M12 25h1v1H12z"/>
  <path fill="#eea15a" d="M12 15h1v1H12z"/>
  <path fill="#eea468" d="M13 13h1v1H13z"/>
  <path fill="#eeb2b4" d="M19 24h1v1H19z"/>
  <path fill="#eeb7bc" d="M7 21h1v1H7z"/>
  <path fill="#eebcc1" d="M8 8h1v1H8z"/>
  <path fill="#ef794b" d="M20 19h1v1H20z"/>
  <path fill="#efbabf" d="M8 22h1v1H8z"/>
  <path fill="#efbc73" d="M17 18h1v1H17z"/>
  <path fill="#efbec3" d="M26 22h1v1H26z"/>
  <path fill="#efc2c6" d="M21 7h1v1H21z"/>
  <path fill="#f0af6f" d="M12 16h1v1H12z"/>
  <path fill="#f0bbc1" d="M23 9h1v1H23z"/>
  <path fill="#f0c5c8" d="M7 22h1v1H7z"/>
  <path fill="#f19374" d="M11 12h1v1H11z"/>
  <path fill="#f1c4c5" d="M9 11h1v1H9z"/>
  <path fill="#f1c4c7" d="M9 8h1v1H9z"/>
  <path fill="#f2b9b1" d="M9 12h1v1H9z"/>
  <path fill="#f2c691" d="M19 17h1v1H19z"/>
  <path fill="#f2c8cb" d="M8 11h1v1H8z"/>
  <path fill="#f39c74" d="M21 18h1v1H21z"/>
  <path fill="#f3bc87" d="M12 14h1v1H12z"/>
  <path fill="#f3cad0" d="M18 6h1v1H18z"/>
  <path fill="#f3cbcf" d="M13 25h1v1H13z"/>
  <path fill="#f3cdd0" d="M12 6h1v1H12z"/>
  <path fill="#f3cfd2" d="M20 7h1v1H20z"/>
  <path fill="#f3d093" d="M18 14h1v1H18z"/>
  <path fill="#f4cdd0" d="M21 23h1v1H21z"/>
  <path fill="#f4ced6" d="M17 5h1v1H17z"/>
  <path fill="#f4d2d5" d="M22 23h1v1H22z"/>
  <path fill="#f4d5d7" d="M23 20h1v1H23z"/>
  <path fill="#f5d3d8" d="M18 25h1v1H18z"/>
  <path fill="#f5d5d8" d="M11 24h1v1H11z"/>
  <path fill="#f5d6da" d="M10 7h1v1H10z"/>
  <path fill="#f5d7da" d="M20 24h1v1H20z"/>
  <path fill="#f5d8dc" d="M25 10h1v1H25z"/>
  <path fill="#f5d9ad" d="M17 13h1v1H17z"/>
  <path fill="#f6c8a9" d="M12 13h1v1H12z"/>
  <path fill="#f6d9dd" d="M6 8h1v1H6z"/>
  <path fill="#f7c8ae" d="M19 18h1v1H19z"/>
  <path fill="#f7dcde" d="M24 10h1v1H24z"/>
  <path fill="#f7dcdf" d="M23 22h1v1H23z"/>
  <path fill="#f8e2c2" d="M14 18h1v1H14z"/>
  <path fill="#f8e2e5" d="M22 8h1v1H22z"/>
  <path fill="#f9dbd3" d="M22 19h1v1H22z"/>
  <path fill="#f9e5e8" d="M9 23h1v1H9z"/>
  <path fill="#fadcd2" d="M21 19h1v1H21z"/>
  <path fill="#fbe9e3" d="M10 12h1v1H10z"/>
  <path fill="#fbeff1" d="M5 21h1v1H5z"/>
  <path fill="#fbf0d7" d="M18 16h1v1H18z"/>
  <path fill="#fbf1da" d="M18 17h1v1H18z"/>
  <path fill="#fce2cc" d="M11 13h1v1H11z"/>
  <path fill="#fce8db" d="M20 18h1v1H20z"/>
  <path fill="#fcf1f2" d="M16 27h1v1H16z"/>
  <path fill="#fcf5e4" d="M16 18h1v1H16z"/>
  <path fill="#fcf6e2" d="M18 15h1v1H18z"/>
  <path fill="#fcf7eb" d="M14 13h1v1H14z"/>
  <path fill="#fef8f8" d="M24 20h1v1H24z"/>
  <path fill="#fefdf4" d="M15 18h1v1H15z"/>
  <path fill="#fefef6" d="M13 17h1v1H13z"/>
  <path fill="#fffdfd" d="M16 4h1v1H16z"/>
  <path fill="#ffffff" d="M15 4h1v1H15zM14 5h3v1H14zM5 9h3v1H5zM24 9h2v1H24zM5 10h3v1H5zM15 13h2v1H15zM13 14h5v1H13zM13 15h5v1H13zM13 16h5v1H13zM14 17h4v1H14zM25 20h1v1H25zM6 21h1v1H6zM24 21h3v1H24zM24 22h2v1H24zM14 26h3v1H14zM15 27h1v1H15z"/>
</svg>